<svg id="Layer_1" data-name="Layer 1" xmlns="http://www.w3.org/2000/svg" viewBox="0 0 846.67 683.42"><defs><style>.cls-1{fill:#4d4d4d;}.cls-1,.cls-2,.cls-3{stroke:#000;stroke-miterlimit:10;stroke-width:2px;}.cls-2{fill:#8cc63f;}.cls-3{fill:#39b54a;}</style></defs><title>Betty-Cricket</title><path d="M731.15,562a16.14,16.14,0,0,0-3.89-8.17l-33.5-22.46c-11.08-7.43-22.09-15-33.39-22.1a12.52,12.52,0,0,0-14.11,3.19,20.58,20.58,0,0,0,3.82,16.92c22.47,14.85,44.77,30,67.13,45A12.33,12.33,0,0,0,731.3,571,16.14,16.14,0,0,0,731.15,562Z" transform="translate(-13.37 -41.32)"/><path class="cls-1" d="M353.42,510.9c5.91,137.49,15.46,198.25,9,200.3-8.43,2.68-33.54-98.39-47.73-187.57-3.91-24.6-5.84-41.06-7.46-55-11.58-99.95-19.18-171.14,9.08-203.93,4.65-5.4,9.84-11.22,15.49-9.94C352.91,259.49,346.86,358.23,353.42,510.9Z" transform="translate(-13.37 -41.32)"/><path class="cls-1" d="M415.81,313.51C303.88,230.75,243,160.81,227.54,173.5c-7.58,6.21.69,27.85,7.11,44.24,28.86,73.7,82.39,117.35,122,148.9C547,518.15,588.29,532.09,625.49,520.8c8.42-2.55,19.12-6,22.68-14.59C661.15,474.66,559.56,419.81,415.81,313.51Z" transform="translate(-13.37 -41.32)"/><path class="cls-1" d="M327.5,718.71c-25.73,2.82-35.54,6.7-37.39,4.27-2.41-3.18,11.86-13.12,26.23-18.87A83.29,83.29,0,0,1,325.5,701c17.07-4.81,29.38-8,42.14,2.57,2.1,1.74,4.41,3.68,5.42,5.82C376.84,717.45,356.06,715.58,327.5,718.71Z" transform="translate(-13.37 -41.32)"/><path d="M713.72,565.38a16.28,16.28,0,0,0-4.75-7.75c-11.55-5.8-23.14-11.52-34.71-17.28s-23-11.59-34.66-17a12.48,12.48,0,0,0-13.7,4.63,20.73,20.73,0,0,0,5.58,16.5c11.65,5.7,23.24,11.5,34.85,17.27s23.32,11.46,34.88,17.39a12.28,12.28,0,0,0,13.65-4.79A16.28,16.28,0,0,0,713.72,565.38Z" transform="translate(-13.37 -41.32)"/><path d="M714.58,635.32c-4.49-24.23-8.63-48.55-13.69-72.67a14.26,14.26,0,0,0-13.11-6.1A15.34,15.34,0,0,0,681.51,570c4.45,24.4,9,48.77,13.55,73.15a13.92,13.92,0,0,0,13.14,6A16.17,16.17,0,0,0,714.58,635.32Z" transform="translate(-13.37 -41.32)"/><path d="M534.93,539a11.15,11.15,0,0,0-3.05-4.95,3.35,3.35,0,0,0-3.71-1.62,11,11,0,0,0-5.92,2.48l-0.52.73L516.5,543l1.58-2.22q-30.18,42.39-60.15,84.92a18.17,18.17,0,0,0,5.59,13.34A9.32,9.32,0,0,0,474,634.7l26.86-37.94c11.89-16.8,24-33.49,35.58-50.5A14.11,14.11,0,0,0,534.93,539Z" transform="translate(-13.37 -41.32)"/><path d="M522.25,534.94h0l0.65-.91Z" transform="translate(-13.37 -41.32)"/><path d="M860,78.77l-2.55,1.47c-1.68.95-4.07,2.39-7.11,4.25s-6.69,4.19-10.8,7-8.65,6-13.54,9.62-10,7.71-15.26,12.28l-2,1.7-2,1.77c-1.32,1.19-2.68,2.37-4,3.6-2.64,2.5-5.38,5-8,7.7s-5.31,5.44-8,8.24c-1.33,1.41-2.59,2.89-3.92,4.33s-2.64,2.9-3.9,4.42l-3.85,4.52-1.91,2.33-1,1.18-0.24.3-0.06.07s0.09-.11,0,0l-0.12.15-0.42.55c-2.34,3.07-4.67,6.35-6.89,9.64s-4.35,6.66-6.34,10.08-3.89,6.86-5.63,10.34-3.36,6.95-5,10.35l-2.26,5.11,0-.1,0,0.08-0.07.17-0.14.34-0.27.67-0.56,1.34-1.12,2.66c-0.83,1.8-1.36,3.39-2,5s-1.33,3.18-1.93,4.87-1.26,3.28-1.88,4.89l-1.74,4.83c-2.23,6.39-4.27,12.51-6,18.25s-3.26,11.05-4.55,15.81-2.4,8.95-3.33,12.41l-2.13,8.1L718.88,282l-1.7-.06s-0.22-1-.51-3c-0.17-1-.32-2.18-0.48-3.59s-0.35-3-.5-4.88c-0.27-3.66-.52-8.12-0.45-13.23,0-2.57.14-5.28,0.26-8.16s0.38-5.89.79-9a161.51,161.51,0,0,1,3.52-20.19l1.35-5.39c0.54-1.8,1.07-3.63,1.66-5.47s1.25-3.73,2-5.62,1.44-3.87,2.22-5.56l1.19-2.63,1.3-2.82c0.93-1.82,1.88-3.65,2.88-5.46,2-3.61,4.19-7.16,6.48-10.65,4.58-7,9.56-13.79,14.74-20.41,2.6-3.32,5.24-6.54,8.07-9.76l0.55-.62,0.59-.64,1-1.11,2.11-2.24L770.3,137c1.42-1.48,2.9-2.9,4.38-4.31s2.92-2.82,4.42-4.16c3-2.67,6-5.34,9-7.81,6-5,11.94-9.63,17.77-13.74s11.49-7.76,16.76-11c2.67-1.59,5.2-3.13,7.68-4.49l3.6-2,3.43-1.83c4.44-2.36,8.38-4.27,11.64-5.8s5.86-2.68,7.62-3.42l2.7-1.16Z" transform="translate(-13.37 -41.32)"/><path class="cls-2" d="M701.54,467.23c5.81,49.45-168.91,109.46-286.63,132.92C216.64,639.66,16.08,607.93,14.38,578.7c-0.62-10.72,25.8-16.41,90.88-41.36,182.3-69.89,195.2-122.17,286.63-132.92C556.55,385.07,695.18,413.19,701.54,467.23Z" transform="translate(-13.37 -41.32)"/><path class="cls-3" d="M111.37,509.8C93,457.64,339.83,334.19,363.86,322.29,410,299.46,440.28,288.46,477,284c79.32-9.74,188.48,10.87,200.71,59.08,13.91,54.85-98.15,143.42-208.8,169.61-16.81,4-32.4,5.53-62.89,8.46C276.71,533.55,124.88,548.16,111.37,509.8Z" transform="translate(-13.37 -41.32)"/><path class="cls-2" d="M651.84,266.69c21.25-23.55,58.68-39.4,94.42-31,34,7.94,52.66,34.54,65.43,53.3,32.72,48.09,66.59,145.12,20.5,185.34-39.76,34.69-124.24,14.19-168-36.17C623.69,391.56,611.23,311.7,651.84,266.69Z" transform="translate(-13.37 -41.32)"/><ellipse cx="707.29" cy="336.93" rx="29.79" ry="52.71" transform="translate(-47.88 43.58) rotate(-6.71)"/><path d="M813.13,42.73l-2.34,1.79c-1.54,1.16-3.73,2.9-6.5,5.13s-6.09,5-9.81,8.29S786.67,65,782.3,69.22s-8.95,8.94-13.54,14.15L767,85.31l-1.73,2c-1.16,1.35-2.35,2.69-3.52,4.09-2.3,2.82-4.69,5.66-7,8.67s-4.56,6.08-6.84,9.2c-1.13,1.57-2.2,3.2-3.33,4.8s-2.24,3.21-3.3,4.88l-3.23,5-1.59,2.56-0.81,1.3-0.2.32-0.05.08s0.08-.12,0,0l-0.1.16L735,129c-1.92,3.35-3.81,6.9-5.58,10.44s-3.46,7.17-5,10.82-3,7.31-4.24,11-2.44,7.32-3.59,10.91L715,177.46l0-.1,0,0.09,0,0.18-0.09.35-0.18.7-0.38,1.4-0.77,2.78c-0.59,1.89-.91,3.54-1.37,5.24s-0.91,3.33-1.28,5.08-0.83,3.41-1.23,5.09l-1.11,5c-1.39,6.62-2.62,13-3.57,18.87s-1.81,11.38-2.47,16.27-1.23,9.18-1.7,12.74l-1.06,8.3-0.4,3-1.69.16s-0.35-1-.89-2.89c-0.29-.95-0.6-2.12-0.94-3.5s-0.74-3-1.12-4.77c-0.74-3.59-1.56-8-2.15-13.06-0.35-2.54-.54-5.25-0.8-8.12s-0.39-5.89-.38-9.05a161.52,161.52,0,0,1,.88-20.47l0.64-5.52c0.31-1.85.59-3.74,0.94-5.64s0.76-3.86,1.22-5.82,0.93-4,1.48-5.8l0.84-2.76,0.92-3c0.68-1.93,1.39-3.86,2.15-5.79,1.51-3.84,3.23-7.64,5.05-11.4,3.64-7.52,7.7-14.91,12-22.14,2.15-3.63,4.35-7.16,6.75-10.72l0.47-.69,0.5-.71,0.89-1.24,1.81-2.5,3.73-4.95c1.22-1.66,2.5-3.25,3.78-4.83s2.53-3.17,3.85-4.7c2.64-3,5.21-6.07,7.89-8.91,5.27-5.76,10.6-11.09,15.85-15.92s10.39-9.18,15.19-13.1c2.44-1.92,4.75-3.78,7-5.44l3.31-2.46,3.17-2.26c4.09-2.92,7.75-5.32,10.79-7.25s5.46-3.41,7.12-4.38l2.53-1.5Z" transform="translate(-13.37 -41.32)"/><path class="cls-1" d="M388.84,358.53c-132.17-97.74-178-148.77-188.26-140-13.72,11.69,55,113.9,129.13,193.13,42.88,45.81,171.88,183.59,268.81,154.17,8.42-2.55,19.12-6,22.68-14.59C634.18,519.68,532.59,464.84,388.84,358.53Z" transform="translate(-13.37 -41.32)"/><path d="M622.66,520.47a5.76,5.76,0,0,0-3.92-2.41q-62.94,6.06-125.86,12.27a4.51,4.51,0,0,0-4.46,2.44A33.17,33.17,0,0,0,484,540a4.51,4.51,0,0,0-.16,5.08,6.39,6.39,0,0,0,4.14,2.54l62.91-6.15c20.91-2,41.85-3.93,62.73-6.26a4.55,4.55,0,0,0,4.35-2.51,35,35,0,0,0,4.45-7.25A4.55,4.55,0,0,0,622.66,520.47Z" transform="translate(-13.37 -41.32)"/><path d="M479.75,534.94h0l0.65-.91Z" transform="translate(-13.37 -41.32)"/><path d="M492.43,539a11.15,11.15,0,0,0-3.05-4.95,3.35,3.35,0,0,0-3.71-1.62,11,11,0,0,0-5.92,2.48l-0.52.73L474,543l1.58-2.22q-30.18,42.39-60.15,84.92A18.17,18.17,0,0,0,421,639.07a9.32,9.32,0,0,0,10.44-4.37l26.86-37.94c11.89-16.8,24-33.49,35.58-50.5A14.11,14.11,0,0,0,492.43,539Z" transform="translate(-13.37 -41.32)"/><path d="M741.87,639.26c-2.66-23-5-46.11-8.17-69.07A14.54,14.54,0,0,0,721,563.31a14.71,14.71,0,0,0-6.9,12.78c2.59,23.19,5.32,46.36,8,69.54a14.18,14.18,0,0,0,12.76,6.81A15.54,15.54,0,0,0,741.87,639.26Z" transform="translate(-13.37 -41.32)"/><path class="cls-1" d="M271.34,486.56c25.14,148.26,44.19,212.52,37.09,215.92-9.28,4.44-51.49-100.78-79.63-195.08-7.76-26-12.17-43.54-15.89-58.42-26.6-106.45-44.81-182.4-16.9-223.13,4.6-6.71,9.74-14,16.38-13.6C237.14,213.59,243.43,321.94,271.34,486.56Z" transform="translate(-13.37 -41.32)"/><path class="cls-1" d="M277.08,714.13c-25.73,2.82-35.54,6.7-37.39,4.27-2.41-3.18,11.86-13.12,26.23-18.87a83.29,83.29,0,0,1,9.16-3.06c17.07-4.81,29.38-8,42.14,2.57,2.1,1.74,4.41,3.68,5.42,5.82C326.42,712.87,305.65,711,277.08,714.13Z" transform="translate(-13.37 -41.32)"/><path class="cls-1" d="M521.68,182.53" transform="translate(-13.37 -41.32)"/></svg>