<svg id="Layer_1" data-name="Layer 1" xmlns="http://www.w3.org/2000/svg" viewBox="0 0 901.84 901.84"><defs><style>.cls-1{fill:#ed1c24;}.cls-2{fill:#fff;}.cls-3{fill:#4d4d4d;}.cls-3,.cls-4,.cls-5{stroke:#000;stroke-miterlimit:10;stroke-width:2px;}.cls-4{fill:#8cc63f;}.cls-5{fill:#39b54a;}</style></defs><title>Betty-Cricket-main</title><rect class="cls-1" width="900" height="900" transform="translate(1.84 0) rotate(0.12)"/><path class="cls-2" d="M430.62,402c2.24,11.3,4.15,21.44,18.14,17.42,12.12-3.48,22.92-10.39,32-19,4.89-4.61,9.37-9.63,13.92-14.56,4.36-4.74,5.89-10,8.1-16,4.81-13,9.7-26,14.34-39.14-7,0-25.14,2.84-28.86-5.24-0.47-1-1.26-5-.44-5.88s8.75,0,10.24,0h18.07c5.07,0,5.16.2,6.91-4.55l2.56-6.94,3.48-9.45c1.55-4.22,1.11-5.19,5.55-3.6,4.16,1.49,8.44,3.53,11,7.28,3.67,5.31,1.57,11,0,16.67,8.2-.71,16.44-1,24.67-1.23,3-.1,6.24.57,8.34-1.59,2.32-2.39,3.35-9,4.52-12.17,0.63-1.72,2.15-9.21,3.82-10.11,1.48-.8,7.88,2.82,9.22,3.63,7.35,4.42,8.9,10.74,6.34,18.62,6.27,0,61.14-1.37,60.65,5.27-12.54,1.79-25.75,1-38.42,1.76-6.66.41-13.32,0.86-20,1.29-5.15.33-5.29,0.15-7.13,4.93q-1.78,4.6-3.56,9.2c-5.06,13-10.42,25.84-14.79,39.07-3.5,10.6-9.67,25.51-6.1,36.75,4.13,13,20,.64,25.64-4.82,4.4-4.22,4.23-11.62,5.75-17.37a178.61,178.61,0,0,1,6.45-19.26c2.35-6,4.92-11.9,7.54-17.78,1.31-2.94,2.65-5.87,4-8.79,0.69-1.5,2.74-8.5,4.42-9.32,3.06-1.5,12.56,6.06,14,8.25,3.59,5.53,0,12-2,17.46-4.62,12.49-10,24.81-14,37.49-2.51,7.85-3.16,24.48,9.67,18.7,10.83-4.89,19.64-15.76,27-24.74a215.36,215.36,0,0,0,21-30.94c3.32-5.89,6.31-11.95,9.51-17.9,1.91-3.56,3-7.57,7.39-6.7,4.13,0.83,9.19,4.54,10.81,8.43,2.4,5.76-1.34,11.44-4,16.42-12.44,23.55-24.66,47.08-34.68,71.8a437.08,437.08,0,0,0-14.64,41.85q-1.63,5.61-3.07,11.27c-0.47,1.85-1.1,8.74-2.62,10-2.54,2.06-12.22-2.59-14.29-4.74-8.12-8.39,1.42-29.19,4.46-38.3,2.53-7.58,5.31-15.07,8.29-22.48,2.36-5.89,7.57-13.46,8-19.8-10.11,8.9-20.15,18-34.1,19.54-12.14,1.35-20.46-3.11-22.3-15.65-9.3,7.54-18.91,15.83-31.54,16.15-12.93.33-18.26-9-20-20.48-11.08,9.58-24.56,23.24-40.79,20.23-16.48-3.05-15.35-21.77-14.67-34.66-15,16-33.56,34.41-57.06,34.91-24.94.53-33.51-21.41-28.31-43.16,5-21,19.4-43.43,39.81-52.26,9.74-4.21,23.82-6.18,32.11,2,7,6.87,6.17,17.29,3.38,25.86-3.37,10.38-10.54,18.74-19.52,24.77-10.89,7.32-21.83,8.92-34.28,11.63C431.43,406,432.17,401.62,430.62,402Zm144.09-75.26c-4.86-.86-11.37.64-16.28,1-4.07.31-11.77-.68-15.42,1.23-3.3,1.72-4.2,7.85-5.45,11-2,5.16-4.11,10.29-6.13,15.45-4,10.31-7.94,20.7-11,31.35-2.34,8.1-6.87,20.77-3,29,4.12,8.67,13.54,2.52,18.68-1.62,4-3.24,9-6.48,12.41-10.3,2.93-3.26,2.69-8.38,3.66-12.63,5-22.05,14.69-43.37,22.51-64.54C574.31,326.62,569.63,340.44,574.71,326.69ZM432.46,391.78c7.52,0.37,17.25-5.86,22.8-10.61,7-6,14.81-16.7,13.7-26.43-1.63-14.3-17.35-.72-21.09,4.5-7.06,9.86-11.05,21.33-15.4,32.53C433.16,391.82,434.49,386.57,432.46,391.78Z" transform="translate(0.92 0.92)"/><path class="cls-2" d="M266.11,438.86c19.64,2.24,37.94,3.64,57.07-2.72,16-5.32,31.74-14.52,39.09-30.34,6.73-14.49,2.15-33.43-14-39-12-4.09-35.94,5.67-38.43-12.37,31.47-5.69,65.51-17.11,76.54-50.6,5.65-17.15-3.72-31-22.45-29.59-15.92,1.18-28.35,13.54-37.53,25.54-21.93,28.65-34.21,65.5-45.31,99.41-1.5,4.57-3,9.15-4.42,13.73-0.67,2.08-1.29,4.18-2,6.24-1.13,3.25-.23,3.68-3.3,3s-7.91-5.76-10.38-7.78c-4.08-3.35-5-6-4.86-11.39,0.59-18.64,7.56-37.52,12.33-55.4,5.66-21.18,11.27-42.36,16.48-63.66,0.34-1.38.92-7.16,2-8,1.46-1.2,2.64-.47,4.87.31a25.36,25.36,0,0,1,9.27,5c7.55,7.07,5.75,17.86,4.13,27,12.46-17.53,24.5-35.34,45.65-43,19.14-6.89,44-5.36,57.65,11.55,12.13,15,9.67,36.15-1.54,50.77-12.33,16.08-30,25.55-49.22,30.86,16.85,3.19,36.57,10.84,40.4,29.73s-8.89,36.21-22.75,47.41c-15.63,12.62-35.94,19.6-55.82,21.29-15.56,1.33-48,1.31-53.4-18.1C273.28,439.68,267.34,443.31,266.11,438.86Z" transform="translate(0.92 0.92)"/><path class="cls-2" d="M768,506.08c-17.45-3.32-35.57-2.36-53.24-2.36,2.44-5.18,3-11.7-1.06-16.4-2.39-2.73-5.77-4.49-9.09-5.8-4.42-1.74-4.81-1.62-6.47,2.78-1.45,3.85-2.86,7.72-4.27,11.59-0.54,1.49-1.28,5.7-2.65,6.58s-6.92,0-8.62,0H669.1c-1.89,0-7.77-1.06-9.41,0-2.71,1.75.17,7.47,2.65,9,5.93,3.59,17.27,2.22,24,2.17-4.35,13.86-9.43,27.54-14.41,41.18-1.85,5.07-3.64,10.16-5.13,15.34s-1.41,13-3.78,17.6c-2.06,4-7.61,7.32-11.19,10.13a37.7,37.7,0,0,1-11.56,5.88c-8.16,2.74-18.91,4.56-27.29,2.24-4.83-1.34-7.41-5.75-8.52-10.38-0.27-1.14-1.62-6.81-.67-8s8-1.34,9.44-1.64C633,582,651,569.45,656.51,549.3c2.21-8,2.77-17.36-3.3-23.92-7.14-7.71-19.2-7.08-28.39-4.08-18.53,6.06-32,24.58-38.66,42.16a82.22,82.22,0,0,0-3.85,13.72c-1.34,7.08-1.57,8.64-7.17,13.37-6.48,5.48-16.23,14.57-25.53,14.1-8.9-.45-12.42-16.85-10.1-23.77,0.95-2.83.64-2,3.89-2.63a39.05,39.05,0,0,0,7.13-2.18,44.34,44.34,0,0,0,12.23-7.36c13.28-11.2,28.71-45.07,2.77-51.84-24.66-6.44-45.22,23.61-57.57,39.94,0.89-6.18,4.68-12.67,7-18.46Q519,528,523,517.66c5.17-13.25,10.17-26.56,15.11-39.9,2.24-6.05,5-11.25,1.49-17.34-1.78-3.06-8.42-9.4-12.5-8.88-3.46.44-5.32,10-6.57,13.21l-8.1,20.87-15.69,40.44c-5.18,13.34-9.52,27.54-15.72,40.43-4.88,10.15-16.11,19.08-25,25.67-8.22,6.1-20.54,14.48-31.36,13.63-13-1-12.66-16.88-10.85-26.34a95.7,95.7,0,0,1,13.25-32.82c4.22-6.71,11.74-18.3,21.1-17.35,10.52,1.07,6,15.84,2.5,21.45-1.39,2.21-3.61,3.23-2.23,5.65,1.11,1.95,3.42,2.09,5.33,1.94,5.47-.42,9.92-5.68,12.2-10.23,4.25-8.5,4.42-20.48-3.33-27-18.73-15.78-44.66,5.3-55.21,20.38a104.17,104.17,0,0,0-15.15,31.32,60.86,60.86,0,0,0-2.52,18.5c0.14,3.46.11,3.92-2.57,6.31a60.33,60.33,0,0,1-6.7,5.19c-8.11,5.39-17.15,5.93-17.85-5.88-0.76-12.8,4.66-26.41,8.85-38.28,2.9-8.2,11.7-21.87,5-30.09-2.4-3-8.25-7.12-12.27-7.14-2.38,0-.65-1.09-2.37.67-1,1.06-1.31,3.56-1.84,5-1.35,3.67-2.67,7.36-4.06,11-4.17,10.95-9.38,22.4-12.26,33.94-1.18,4.71-1,11.86-3.33,16s-8.26,8.33-12.15,11c-3.63,2.45-8.88,6.07-13.39,3.67-4.87-2.6-4.87-10-4.16-14.66,1.89-12.52,10.73-24.18,11.51-36.77,0.37-5.91-2.78-10-7.66-13-4.49-2.78-12.31-2.91-16-6.4s-0.47-8.45.93-12.2c1.34-3.59,6.54-13.38,4.59-17.14-1.85-3.59-8.24-2.33-11.31-1.09-5,2-8.59,6.62-11,11.23A27.8,27.8,0,0,0,278.47,527c0.16,3.25,1,5.94,0,9.15s-3.09,6.2-4.63,9c-11.59,21.37-26,44.37-45.28,59.66-16,12.74-42.8,24.8-60.94,9.07-19.15-16.6-10.35-50.11-3.85-70.7,7.4-23.43,18.8-46.62,35.43-64.91,7.56-8.31,16.81-16.72,27.95-19.69,11.37-3,18.3,4,18.39,15.11,0.1,12.13-5.32,23.49-9.87,34.46,10.65,0,18.65-2.15,24-12.2,5.27-9.88,5.81-22,3.05-32.73-6.08-23.65-31.65-28.58-52.44-22.47-43.21,12.71-71.3,63.13-81.07,104.1-5.3,22.21-7.67,48.54,3.63,69.35,10.49,19.3,32.56,26.4,53.51,24,47.41-5.47,78.21-49.48,95.5-90.12l1.54-3.63c1.18-2.78,1-4.16,3.3-4.31,2.74-.19,7.41,3.09,10,4.18,4.7,2,3.65,2.23,1.93,6.47-1.23,3-2.42,6.07-3.52,9.15-4.45,12.44-8.55,26.54-7.47,39.9,0.94,11.69,7.21,21.16,19.95,18.87,13-2.33,23.36-12,32.66-20.65,0.87,12.3,7,22.64,20.64,21.85,12.8-.75,23-9.42,31-18.62,6.76,16.75,23.8,20.56,39.93,16.08s28.29-15.85,40.45-26.92c-2.53,8.33-8.82,19.82.38,26,5.11,3.46,7.92,4.24,10.88-1.18,3.27-6,6.16-12.2,9.39-18.21,11.3-21.05,25-41.62,43.07-57.55,4.68-4.14,19.86-14.62,22.83-3.31,2.73,10.38-8.17,20.33-15.46,25.64a77.06,77.06,0,0,1-13.53,7.86c-4.1,1.86-10.92,2.41-12.1,6.94-2.44,9.34.15,25,4.92,33.29,13.63,23.58,46-3.94,58.77-14.2,1.83,8.1,4.61,15.48,12.16,19.88,7.08,4.13,16.88,4.62,24.9,4.3,18.13-.73,31.13-9.89,44.17-21.16,1.06,6.82,2.53,13.57,8.72,17.63,5.77,3.79,13.38,3.38,19.73,1.46,7.57-2.28,31.92-14.54,23.16-25-2.62,5-12,10.8-17.22,12.64-7.41,2.61-11.21-2.08-11.77-9.26-1.24-16,7.06-34,12.62-48.6,3-7.77,6.09-15.47,9.1-23.22,1-2.55,2.64-10.58,4.68-12.09s12.23-.78,15-1c16.48-1.08,32-.07,48.27-2.4,0.13-1.69-5.4-2.61-7-2.91h0ZM621.44,542.76c3.13-4.47,10-11.77,16.22-8.31,5.92,3.31,2.8,12.41.85,17.19-5.15,12.65-19.46,24.49-33.28,26,3.86-12.52,8.8-24.27,16.21-34.83h0Z" transform="translate(0.92 0.92)"/><path class="cls-2" d="M390.91,510.2c-4.28,12.29-28,4-23.78-8.28S395.2,497.9,390.91,510.2Z" transform="translate(0.92 0.92)"/><path d="M574.8,274.55L592.34,284c2.3,1.24,7.33-1.86,4.45-3.42l-17.53-9.46c-2.3-1.24-7.33,1.86-4.45,3.42h0Z" transform="translate(0.92 0.92)"/><path class="cls-3" d="M510.76,273.86c1.29,30,3.37,43.26,2,43.7-1.84.58-7.32-21.47-10.41-40.93-0.85-5.37-1.27-9-1.63-12-2.53-21.81-4.18-37.34,2-44.5,1-1.18,2.15-2.45,3.38-2.17C510.65,219,509.32,240.55,510.76,273.86Z" transform="translate(0.92 0.92)"/><path class="cls-3" d="M524.37,230.79c-24.42-18.06-37.7-33.32-41.08-30.55-1.65,1.35.15,6.08,1.55,9.65,6.3,16.08,18,25.61,26.62,32.49C553,275.44,562,278.49,570.12,276c1.84-.56,4.17-1.3,4.95-3.18C577.9,266,555.73,254,524.37,230.79Z" transform="translate(0.92 0.92)"/><path class="cls-3" d="M505.1,319.2c-5.61.62-7.75,1.46-8.16,0.93-0.53-.69,2.59-2.86,5.72-4.12a18.17,18.17,0,0,1,2-.67c3.72-1,6.41-1.74,9.2.56a4.32,4.32,0,0,1,1.18,1.27C515.87,318.93,511.33,318.52,505.1,319.2Z" transform="translate(0.92 0.92)"/><path d="M568.66,276.37L583.91,284a4,4,0,0,0,4.15-.37c0.81-.63,1.68-2.26.33-2.93l-15.25-7.58a4,4,0,0,0-4.15.37c-0.81.63-1.68,2.26-.33,2.93h0Z" transform="translate(0.92 0.92)"/><path d="M583.94,284.51l2.27,14.55c0.22,1.4,6.06.13,5.8-1.55L589.74,283c-0.22-1.4-6.06-.13-5.8,1.55h0Z" transform="translate(0.92 0.92)"/><path d="M549.51,278.82l-13.86,19.59c-1.67,2.36,4.2,2.17,5.47.38L555,279.21c1.67-2.36-4.2-2.17-5.47-.38h0Z" transform="translate(0.92 0.92)"/><path d="M621.28,179.54s-0.79.43-2.12,1.22-3.22,2-5.36,3.56c-1.06.8-2.21,1.67-3.36,2.66s-2.36,2-3.53,3.19-2.36,2.39-3.49,3.69a37.34,37.34,0,0,0-3.19,4.1,46.43,46.43,0,0,0-2.67,4.46c-0.79,1.52-1.49,3-2.1,4.52s-1.16,2.91-1.65,4.33-0.9,2.76-1.25,4-0.67,2.43-.92,3.48-0.47,2-.65,2.73l-0.54,2.41h-0.3a23.33,23.33,0,0,1-.23-2.49,37.28,37.28,0,0,1,.29-6.59,36.17,36.17,0,0,1,.82-4.36,30.26,30.26,0,0,1,1.57-4.76,31,31,0,0,1,2.53-4.69c1-1.52,2-3,3.16-4.45a39.63,39.63,0,0,1,3.61-4.09c1.26-1.27,2.54-2.47,3.83-3.57a58.75,58.75,0,0,1,7.46-5.45,62.19,62.19,0,0,1,5.7-3.14c1.42-.68,2.24-1,2.24-1Z" transform="translate(0.92 0.92)"/><path class="cls-4" d="M586.71,264.33c1.27,10.79-36.85,23.88-62.54,29-43.26,8.62-87,1.7-87.39-4.68-0.14-2.34,5.63-3.58,19.83-9,39.78-15.25,42.59-26.66,62.54-29C555.08,246.41,585.33,252.54,586.71,264.33Z" transform="translate(0.92 0.92)"/><path class="cls-5" d="M457.94,273.62c-4-11.38,49.85-38.32,55.09-40.91,10.06-5,16.67-7.38,24.68-8.37,17.31-2.13,41.13,2.37,43.79,12.89,3,12-21.42,31.29-45.56,37-3.67.87-7.07,1.21-13.72,1.85C494,278.8,460.89,282,457.94,273.62Z" transform="translate(0.92 0.92)"/><path class="cls-4" d="M575.87,220.58c4.64-5.14,12.8-8.6,20.6-6.77,7.41,1.73,11.49,7.54,14.28,11.63,7.14,10.49,14.53,31.67,4.47,40.44-8.68,7.57-27.11,3.1-36.66-7.89C569.73,247.82,567,230.4,575.87,220.58Z" transform="translate(0.92 0.92)"/><ellipse cx="587.97" cy="235.9" rx="6.5" ry="11.5" transform="translate(-22.61 71.2) rotate(-6.71)"/><path d="M611,171.68s-0.73.52-1.95,1.49-2.93,2.38-4.85,4.22c-1,.93-2,1.94-3,3.07s-2.08,2.32-3.09,3.62-2,2.67-3,4.11a37.34,37.34,0,0,0-2.63,4.48,46.42,46.42,0,0,0-2.07,4.76c-0.58,1.61-1.09,3.17-1.5,4.75s-0.78,3-1.08,4.5-0.53,2.85-.72,4.15-0.35,2.5-.46,3.57-0.21,2-.29,2.79l-0.22,2.46-0.3,0a23.34,23.34,0,0,1-.55-2.44,37.28,37.28,0,0,1-.57-6.57,36.17,36.17,0,0,1,.25-4.43,30.27,30.27,0,0,1,.94-4.92,31,31,0,0,1,1.91-5c0.78-1.64,1.62-3.26,2.56-4.82A39.63,39.63,0,0,1,593.5,187c1.08-1.42,2.2-2.78,3.34-4a58.75,58.75,0,0,1,6.7-6.37,62.19,62.19,0,0,1,5.25-3.85c1.32-.86,2.09-1.31,2.09-1.31Z" transform="translate(0.92 0.92)"/><path class="cls-3" d="M518.48,240.62c-28.84-21.33-38.84-32.46-41.08-30.55-3,2.55,12,24.85,28.18,42.14,9.36,10,37.5,40.06,58.65,33.64,1.84-.56,4.17-1.3,4.95-3.18C572,275.78,549.85,263.81,518.48,240.62Z" transform="translate(0.92 0.92)"/><path d="M570.74,274.43l-27.45,2.68c-3.07.3-4.61,4.2-.63,3.81l27.45-2.68c3.07-.3,4.61-4.2.63-3.81h0Z" transform="translate(0.92 0.92)"/><path d="M540.24,278.82l-13.86,19.59c-1.67,2.36,4.2,2.17,5.47.38l13.86-19.59c1.67-2.36-4.2-2.17-5.47-.38h0Z" transform="translate(0.92 0.92)"/><path d="M591.66,283.08l1.75,15.18c0.3,2.58,6.11,1.18,5.8-1.55l-1.75-15.18c-0.3-2.58-6.11-1.18-5.8,1.55h0Z" transform="translate(0.92 0.92)"/><path class="cls-3" d="M492.85,268.55c5.49,32.35,9.64,46.37,8.09,47.11-2,1-11.24-22-17.37-42.57-1.69-5.68-2.65-9.5-3.47-12.75-5.8-23.23-9.78-39.8-3.69-48.69,1-1.46,2.13-3,3.57-3C485.38,209,486.76,232.63,492.85,268.55Z" transform="translate(0.92 0.92)"/><path class="cls-3" d="M494.1,318.2c-5.61.62-7.75,1.46-8.16,0.93-0.53-.69,2.59-2.86,5.72-4.12a18.17,18.17,0,0,1,2-.67c3.72-1,6.41-1.74,9.2.56a4.32,4.32,0,0,1,1.18,1.27C504.87,317.93,500.33,317.52,494.1,318.2Z" transform="translate(0.92 0.92)"/><path class="cls-3" d="M521.68,182.53" transform="translate(0.92 0.92)"/><path d="M449.89,288.48a118.79,118.79,0,0,0-27-4.11,107.46,107.46,0,0,0-27.11,2.54,103,103,0,0,0-25.43,9.52A122.58,122.58,0,0,0,348,311.94,178.82,178.82,0,0,0,329,331.38c-5.9,6.92-11.41,14.18-16.81,21.52-2.72,3.68-5.37,7.34-7.83,11.15s-4.83,7.68-7.07,11.64c-4.49,7.9-8.62,16-12.44,24.27S277.44,416.59,274,425l-5,12.72-4.71,12.83c-3,8.6-6,17.21-8.75,25.9l-2.1,6.5c-0.7,2.17-1.33,4.36-2,6.54l-4,13.1c-1.23,4.39-2.47,8.8-3.84,13.18l-4.16,13.07c-2.78,8.7-5.7,17.34-8.4,26q-2,6.51-3.9,13.06c-0.65,2.18-1.26,4.36-1.86,6.55s-1.2,4.38-1.75,6.58-1.13,4.39-1.65,6.6-1.07,4.41-1.54,6.63c-1,4.42-1.95,8.87-2.86,13.32l-2.83,13.8-1.61-14c-0.57-4.94-1-9.89-1.71-14.82l-1-7.39-1.12-7.37c-0.35-2.46-.78-4.91-1.21-7.35l-1.28-7.34-1.45-7.31-0.74-3.65-0.82-3.63-1.64-7.27-1.84-7.22c-1.16-4.83-2.64-9.58-4-14.37-0.68-2.39-1.48-4.74-2.21-7.12s-1.45-4.76-2.27-7.1l-2.44-7-1.22-3.53-1.32-3.49c-1.76-4.65-3.49-9.32-5.45-13.89l-2.85-6.9-3-6.82c-1-2.27-2-4.56-3.05-6.82l-3.22-6.74c-1.09-2.24-2.11-4.52-3.27-6.72l-3.41-6.65c-2.22-4.46-4.66-8.81-7.05-13.18s-4.82-8.73-7.37-13c-5.09-8.58-10.36-17.05-15.94-25.33,5.85,8.09,11.49,16.34,16.78,24.82q4,6.34,7.72,12.85c2.51,4.32,5.06,8.62,7.4,13l3.59,6.59c1.22,2.18,2.29,4.44,3.45,6.66l3.4,6.69c1.12,2.24,2.16,4.51,3.24,6.77l3.19,6.8,3,6.89c2.05,4.57,3.87,9.23,5.73,13.88l1.39,3.49,1.29,3.53,2.59,7.06c0.86,2.35,1.61,4.75,2.41,7.12s1.61,4.75,2.32,7.15c1.4,4.81,3,9.58,4.19,14.44l2,7.26,1.75,7.31,0.88,3.66,0.79,3.68,1.56,7.36,1.39,7.39c0.47,2.46.92,4.93,1.29,7.41l1.19,7.43,1,7.45c0.73,5,1.22,9.95,1.84,14.92l-4.45-.18c0.83-4.51,1.64-9,2.6-13.52,0.46-2.25,1-4.48,1.51-6.72s1.05-4.47,1.62-6.69,1.12-4.45,1.73-6.67,1.19-4.43,1.83-6.64,1.28-4.41,2-6.6,1.35-4.38,2.05-6.56c2.78-8.73,5.73-17.39,8.75-26l4.43-12.93,2.19-6.46,2.14-6.5c2.77-8.69,5.35-17.48,8.31-26.14s5.89-17.32,9-25.93l4.83-12.85,5.1-12.75c3.54-8.44,7.15-16.86,11.13-25.11s8.13-16.43,12.73-24.36q3.44-6,7.24-11.71c2.53-3.84,5.3-7.54,8-11.16,5.51-7.29,11.14-14.52,17.18-21.42A180.61,180.61,0,0,1,347,310.7a124,124,0,0,1,22.78-15.39A104,104,0,0,1,395.61,286a105.62,105.62,0,0,1,27.31-2.13A119,119,0,0,1,449.89,288.48Z" transform="translate(0.92 0.92)"/></svg>